<svg xmlns="http://www.w3.org/2000/svg" viewBox="0 0 75.75 38.73"><defs><style>.cls-1{fill:#4f1f4a;}</style></defs><title>Book-Logo</title><g id="Layer_2" data-name="Layer 2"><g id="Layer_1-2" data-name="Layer 1"><path class="cls-1" d="M64.91,28.09h0a.42.42,0,0,0,.3-.12.4.4,0,0,0,.13-.31V.49a.43.43,0,0,0-.41-.43C64.2,0,63.45,0,62.73,0,53.17,0,45.79,3.53,40.15,10.8a5.23,5.23,0,0,0-1.3,2.81c-.07,6.12-.06,12.26-.06,18.76V38.3a.44.44,0,0,0,.28.41l.15,0a.43.43,0,0,0,.32-.14c6.37-7.17,14.08-10.51,24.27-10.51Z"/><path class="cls-1" d="M75.68,10.48a3.09,3.09,0,0,0-1-1.81A6.41,6.41,0,0,1,74.1,8a.45.45,0,0,0-.36-.19.38.38,0,0,0-.17,0l-.75.32a.43.43,0,0,0-.26.4V35.45A84.22,84.22,0,0,0,64.14,35a36.8,36.8,0,0,0-15,2.79.43.43,0,0,0-.26.48.44.44,0,0,0,.43.35h26a.44.44,0,0,0,.44-.44V32.67C75.76,25.43,75.76,18,75.68,10.48Z"/><path class="cls-1" d="M26.84,37.75A38.33,38.33,0,0,0,11.54,35c-2.4,0-5,.15-8.22.46V8.62A.43.43,0,0,0,3,8.2L1.67,7.86l-.11,0a.44.44,0,0,0-.41.3c-.12.35-.26.69-.41,1a6.75,6.75,0,0,0-.68,2.46C0,16.72,0,21.89,0,26.89,0,28.6,0,30.32,0,32v6.12a.44.44,0,0,0,.43.44H26.67a.44.44,0,0,0,.17-.84Z"/><path class="cls-1" d="M36.38,11.91C32.93,5.35,23.22,0,14.74,0a16.76,16.76,0,0,0-3.9.44.43.43,0,0,0-.33.42V27.5a.44.44,0,0,0,.39.43c13.56,1.5,13.56,1.5,25.39,10a.5.5,0,0,0,.26.08.45.45,0,0,0,.19-.05.42.42,0,0,0,.24-.38V33.05c0-6.56,0-13,0-19.45A3.87,3.87,0,0,0,36.38,11.91Z"/><path class="cls-1" d="M12.27,30c-1.19,0-2.46,0-3.87.11v-26a.45.45,0,0,0-.25-.4l-.79-.35a.58.58,0,0,0-.18,0,.44.44,0,0,0-.34.17,5.67,5.67,0,0,1-.59.63A2.84,2.84,0,0,0,5.16,5.91C5.07,13,5.08,20.14,5.08,27v5.1a.43.43,0,0,0,.39.43l22.2,2.16a.42.42,0,0,0,.4-.29.43.43,0,0,0-.17-.51C23.85,31.24,18.88,30,12.27,30Z"/><path class="cls-1" d="M70.7,32.13V26.64c0-6.61,0-13.46-.07-20.28a3.64,3.64,0,0,0-1-2,7.71,7.71,0,0,1-.57-.78.43.43,0,0,0-.37-.2.51.51,0,0,0-.17,0l-1,.44a.42.42,0,0,0-.26.39V30.1C65.93,30,64.74,30,63.64,30c-6.77,0-11.54,1.18-15.48,3.84a.44.44,0,0,0-.17.51.43.43,0,0,0,.41.28l21.91-2.08A.43.43,0,0,0,70.7,32.13Z"/></g></g></svg>