<svg xmlns="http://www.w3.org/2000/svg" viewBox="0 0 50 62.86"><defs><style>.cls-1{fill:#11d15f;}</style></defs><title>Femije</title><g id="Layer_2" data-name="Layer 2"><g id="Layer_1-2" data-name="Layer 1"><path class="cls-1" d="M49.47,13.16c-1-1.48-2.59-1.66-4.34-.4q-3.8,2.73-7.54,5.55a20.76,20.76,0,0,1-24.87.2q-4-2.9-7.93-5.84A2.61,2.61,0,0,0,2,12.11c-2.33,1.16-2.64,3.31-.69,5,.53.45,1.12.81,1.68,1.21a56.39,56.39,0,0,0,7.82,5.84c2,1.09,3.21,2.25,2.79,4.66a2.67,2.67,0,0,0-.08.48q0,15,0,30.08a2.66,2.66,0,0,0,.36,1.72A2,2,0,0,0,15,62.5c2.09,1.09,4.17-.42,4.2-3.14.06-3.66,0-7.32,0-11,0-.89.19-1.24,1.14-1.22,3.48.06,7,0,10.43.06a2.1,2.1,0,0,1,.67.05,2.1,2.1,0,0,0-.67-.05c0,.54.07,1.07.1,1.61,0,3.65,0,7.31-.06,11A1.61,1.61,0,0,0,31.18,61a2.43,2.43,0,0,0,3,1.76A2.61,2.61,0,0,0,36.45,60c0-.43,0-.87,0-1.31q0-15.65,0-31.3c0-.71-.24-1.52.67-2,4.1-2.18,7.55-5.33,11.25-8.09C50.08,16.07,50.44,14.64,49.47,13.16ZM29.81,41.28c-3.16,0-6.32,0-9.47,0-.84,0-1.11-.25-1.11-1.11,0-3.82,0-7.65,0-11.47,0-.74.23-1,.93-.82a20.61,20.61,0,0,0,9.69,0c.8-.19,1.06.14,1,.89a1.21,1.21,0,0,1,.32.94,1.21,1.21,0,0,0-.32-.94q0,5.93,0,11.86C30.8,41.33,30.29,41.28,29.81,41.28Z"/><path class="cls-1" d="M25,17.66A8.83,8.83,0,0,0,25.05,0a8.83,8.83,0,0,0,0,17.66Z"/></g></g></svg>