<svg xmlns="http://www.w3.org/2000/svg" viewBox="0 0 50 49.89"><defs><style>.cls-1{fill:#d9ab66;}</style></defs><title>Fiction</title><g id="Layer_2" data-name="Layer 2"><g id="Layer_1-2" data-name="Layer 1"><path class="cls-1" d="M24.8,49.88C11.73,50.25-.34,38.88,0,24.36a25,25,0,0,1,50,.93A24.74,24.74,0,0,1,24.8,49.88ZM2.57,25A22.57,22.57,0,1,0,25.19,2.3,22.59,22.59,0,0,0,2.57,25Z"/><path class="cls-1" d="M33.08,40.41l2.58,1.74c-5.7,4.2-15.59,4.45-21.44.06l3.33-2-.14-.44c-2.22,1.12-4.5,1.45-6.37-.31a58.22,58.22,0,0,1-4.31-5.07l.35-.32a8.93,8.93,0,0,1,.73.63c2.62,2.76,5.85,3.3,9.41,2.59a2.16,2.16,0,0,1,2.52,1.08c.47.79.89,1.63,1.51,2.78a15.51,15.51,0,0,0,.84-1.93,45.09,45.09,0,0,0,1.17-16A7.56,7.56,0,0,0,19,17.14l1.26-4.09.35,0c0,.31.05.62.09.93a4.05,4.05,0,0,0,2.07,3.43A2.33,2.33,0,0,1,24.2,20c-.05,6.83,0,13.66,0,20.49,0,.83-.18,1.83.93,2a4.16,4.16,0,0,0,.74-2c.09-2.65,0-5.3.1-7.95.66,2.84.77,5.86,3,8.41a17.77,17.77,0,0,0,1.24-2,2.68,2.68,0,0,1,3.4-1.68c3.43.83,6.25-.31,8.81-2.48a1.34,1.34,0,0,1,.36-.15A8.1,8.1,0,0,1,33.08,40.41Z"/><path class="cls-1" d="M18,31.28a8.54,8.54,0,0,1-7-3.42A14.19,14.19,0,0,1,16.59,6.09c-.87.83-1.56,1.44-2.2,2.1a8.63,8.63,0,0,0,.95,13.22c1.87,1.41,3,2.95,2.69,5.43A36.25,36.25,0,0,0,18,31.28Z"/><path class="cls-1" d="M32.19,31.16a42.38,42.38,0,0,1,.1-6.67c.17-1,1.37-2,2.27-2.86,2.42-2.22,4.18-4.69,3.77-8.19a9.46,9.46,0,0,0-2.6-5.35,6.87,6.87,0,0,1-1.1-1.18,9.24,9.24,0,0,1,4.24,3c3.91,4.6,4.67,13,0,18.25A8.19,8.19,0,0,1,32.19,31.16Z"/><path class="cls-1" d="M43.76,16.79c3.27,6.09,1.37,15.07-4.25,18.35a9.18,9.18,0,0,1-7.25,1c-.71-.19-.86-.55-.66-1.16.47-1.41,1.12-2.7,2.77-3,5.46-.87,9.52-6.3,9.39-12.56C43.75,18.63,43.76,17.82,43.76,16.79Z"/><path class="cls-1" d="M18.66,35.79a8,8,0,0,1-6.37.12A10,10,0,0,1,6.7,31.12a15.69,15.69,0,0,1-.78-13.63c.06-.15.16-.29.3-.55.1,1.67.08,3.2.28,4.71a11.68,11.68,0,0,0,4.63,8.2,12.85,12.85,0,0,0,3.93,1.93C17.34,32.46,18.17,33.2,18.66,35.79Z"/><path class="cls-1" d="M25.47,14.61V13l1.94.1c-.78.51-1.28.95.17,1.34Z"/><path class="cls-1" d="M23.28,14.51v-1.3l1.36-.15v1.52Z"/></g></g></svg>