<svg xmlns="http://www.w3.org/2000/svg" viewBox="0 0 50 49.93"><defs><style>.cls-1{fill:#4f1f4a;}</style></defs><title>Histori</title><g id="Layer_2" data-name="Layer 2"><g id="Layer_1-2" data-name="Layer 1"><path class="cls-1" d="M43.72,37.46c.71.12,1.15.15,1.56.27a2.07,2.07,0,0,1,1.54,2.05,2,2,0,0,1-1.39,2.12,5.51,5.51,0,0,1-1.66.24q-18.81,0-37.62,0a4.94,4.94,0,0,1-1.53-.24,2,2,0,0,1-1.41-2.12,2,2,0,0,1,1.54-2c.45-.13.93-.19,1.51-.3V22h4.5c0,.47.09,1,.1,1.47,0,4.31,0,8.62,0,12.93,0,1,.29,1.32,1.26,1.27a31.74,31.74,0,0,1,3.65,0c1.17.08,1.6-.27,1.58-1.52-.08-4.22,0-8.45,0-12.67v-1.5h4.55v1.35c0,4.35,0,8.71,0,13.06,0,.95.27,1.33,1.26,1.27a36.86,36.86,0,0,1,3.79,0c1,.05,1.36-.28,1.35-1.34-.06-4.22,0-8.44,0-12.67V22H32.7v1.37c0,4.27,0,8.53,0,12.8,0,1.12.29,1.59,1.47,1.51a24.33,24.33,0,0,1,3.52,0c1.15.07,1.59-.25,1.57-1.51-.09-4.23,0-8.45,0-12.67V21.94h4.52Z"/><path class="cls-1" d="M25,18.62c-7.09,0-14.19,0-21.28,0-2.82,0-4.49-2.44-3.23-4.73A4.12,4.12,0,0,1,2,12.37c7.13-4,14.29-7.93,21.43-11.9a2.88,2.88,0,0,1,3.07,0q10.83,6,21.68,12a3.27,3.27,0,0,1-1.69,6.2Zm-16-5,.12.28H41.31a11.25,11.25,0,0,0-.94-.7C35.58,10.59,30.77,8,26,5.28a1.79,1.79,0,0,0-2,0C20.8,7.11,17.6,8.86,14.4,10.63,12.59,11.63,10.79,12.65,9,13.66Z"/><path class="cls-1" d="M25.07,49.93c-7.36,0-14.72,0-22.07,0A3.75,3.75,0,0,1,.57,49,2.06,2.06,0,0,1,1.63,45.6a6.31,6.31,0,0,1,1.79-.21H46.78c.31,0,.61,0,.92,0A2.33,2.33,0,0,1,50,47.76a2.22,2.22,0,0,1-2.46,2.16c-4.92,0-9.84,0-14.76,0Z"/></g></g></svg>