<svg xmlns="http://www.w3.org/2000/svg" viewBox="0 0 50 50"><defs><style>.cls-1{fill:#4f1f4a;}</style></defs><title>Komedi</title><g id="Layer_2" data-name="Layer 2"><g id="Layer_1-2" data-name="Layer 1"><path class="cls-1" d="M50,25a25,25,0,0,1-50,.67A24.83,24.83,0,0,1,24.78,0,24.92,24.92,0,0,1,50,25ZM25.06,4.57a20.45,20.45,0,1,0,20.4,20.69A20.28,20.28,0,0,0,25.06,4.57Z"/><path class="cls-1" d="M25.24,28.16c3.18,0,6.35,0,9.53,0,2.66,0,3.45,1.23,2.43,3.68a13.1,13.1,0,0,1-12.56,7.89,12.73,12.73,0,0,1-11.51-8.2c-.84-2.2-.07-3.35,2.32-3.37C18.71,28.13,22,28.16,25.24,28.16Z"/><path class="cls-1" d="M22.48,21.66l-.3.79c-.36-.16-.74-.29-1.08-.48-.15-.07-.23-.25-.35-.38-2.5-2.87-4.8-2.83-7.26.06a5.32,5.32,0,0,1-1.3.82c-.12-.55-.49-1.2-.31-1.64A16.2,16.2,0,0,1,14,16.48a3.93,3.93,0,0,1,6.16-.19A7.65,7.65,0,0,1,22.48,21.66Z"/><path class="cls-1" d="M38.21,21.67c-.07.14-.22.72-.4.73a1.78,1.78,0,0,1-1.07-.47c-.59-.51-1-1.19-1.66-1.63a3.47,3.47,0,0,0-4.76.2c-.34.27-.6.63-.94.9s-1,.7-1.48,1a6.31,6.31,0,0,1-.28-1.88,7.16,7.16,0,0,1,2.74-4.74,3.94,3.94,0,0,1,5,.06A7.91,7.91,0,0,1,38.21,21.67Z"/></g></g></svg>