<svg xmlns="http://www.w3.org/2000/svg" viewBox="0 0 50 55.49"><defs><style>.cls-1{fill:#11d15f;}</style></defs><title>Triller</title><g id="Layer_2" data-name="Layer 2"><g id="Layer_1-2" data-name="Layer 1"><path class="cls-1" d="M36.44,20.26a14.14,14.14,0,0,1,8.4,7.53,72.16,72.16,0,0,1,3.78,9.45c.83,2.54-.19,4.14-2.77,4.79-4.91,1.24-9.89,2.16-14.92.88-1.77-.45-3.37-1.56-5.08-2.3-.45-.19-1.2-.36-1.5-.13-3.31,2.61-7.2,3.22-11.2,3A57.26,57.26,0,0,1,4.25,42c-2.78-.61-3.64-2.22-2.89-5,1.24-4.52,2.83-8.92,6-12.44,1.44-1.61,3.47-2.69,5.2-4.05.36-.29.9-.78.85-1.1-.63-4.42,1-8.2,3.46-11.63a56,56,0,0,1,5.76-6.74c1.55-1.57,3.29-1.42,4.88.1a37.24,37.24,0,0,1,7.7,10.27A14,14,0,0,1,36.44,20.26Zm7,17c-.72-1.79-1.32-3.41-2-5-1.63-3.65-3.82-6.64-8.13-7.49-2-.38-2.73-2.33-2.3-4.3a11.48,11.48,0,0,0,.31-4.07c-.63-4-3.26-7-5.87-9.92-.14-.15-1,0-1.26.33a54.32,54.32,0,0,0-3.76,5,10.69,10.69,0,0,0-1.55,9,3.32,3.32,0,0,1-2.49,4.09,11.68,11.68,0,0,0-3.26,1.32c-3.8,2.65-5,6.84-6.54,11.07,3.84.83,7.43,1.4,11.09.66a7.7,7.7,0,0,0,4.42-2.52c1.87-2.15,3.91-2.16,5.78,0A7.59,7.59,0,0,0,32.3,38,25.46,25.46,0,0,0,43.47,37.24Z"/><path class="cls-1" d="M39,12.8a21.67,21.67,0,0,1,8.7-1c1.8.17,2.69,1.39,2.12,3.09a14.82,14.82,0,0,1-4.73,6.68c-.23.2-.9.1-1.24-.09A43.35,43.35,0,0,1,40,19.07a1.9,1.9,0,0,1-.61-1.27C39.19,16.19,39.12,14.57,39,12.8Z"/><path class="cls-1" d="M30.58,46.62c-1.14,2.48-2.19,5.12-3.54,7.6a2.23,2.23,0,0,1-3.93.17,65.66,65.66,0,0,1-3.31-7.52c-.08-.2.31-.75.61-.94,1.34-.82,2.72-1.58,4.1-2.32a1.14,1.14,0,0,1,.9,0C27,44.48,28.61,45.45,30.58,46.62Z"/><path class="cls-1" d="M10.68,12.7c0,2.07,0,3.83,0,5.58a.93.93,0,0,1-.38.68c-1.63,1-3.28,2-5,3a16.6,16.6,0,0,1-5-6.72,2.33,2.33,0,0,1,2.15-3.46A21.66,21.66,0,0,1,10.68,12.7Z"/><path class="cls-1" d="M24.92,21.47a4.43,4.43,0,0,1,4.46,4.4,4.51,4.51,0,0,1-4.44,4.28,4.5,4.5,0,0,1-4.3-4.27A4.39,4.39,0,0,1,24.92,21.47Z"/></g></g></svg>